# xmcd
# 
# Track frame offsets:
#     150
#     26325
#     45375
#     67605
#     88322
#     109550
#     129930
#     148150
# 
# Disc length: 2279
# 
# Revision: 0
# Processed by: cddbd v1.5.2PL0 Copyright (c) Steve Scherf et al.
# Submitted via: BonkEnc v1.0.8
# 
DISCID=5e08e508
DTITLE=Patti Austin - Havana Candy
DYEAR=1977
DGENRE=R&B
TTITLE0=That's Enough For Me
TTITLE1=Little Baby
TTITLE2=I Just Want To Know
TTITLE3=Havana Candy
TTITLE4=Golden Oldies
TTITLE5=I Need Somebody
TTITLE6=We're In Love
TTITLE7=Lost In The Stars
EXTD=
EXTT0=
EXTT1=
EXTT2=
EXTT3=
EXTT4=
EXTT5=
EXTT6=
EXTT7=
PLAYORDER=
